<?xml version="1.0" standalone="no"?>
<!DOCTYPE svg PUBLIC "-//W3C//DTD SVG 20010904//EN"
 "http://www.w3.org/TR/2001/REC-SVG-20010904/DTD/svg10.dtd">
<svg version="1.0" xmlns="http://www.w3.org/2000/svg"
 width="605.000000pt" height="605.000000pt" viewBox="0 0 605.000000 605.000000"
 preserveAspectRatio="xMidYMid meet">
<metadata>
Created by potrace 1.14, written by Peter Selinger 2001-2017
</metadata>
<g transform="translate(0.000000,605.000000) scale(0.100000,-0.100000)"
fill="#000000" stroke="none">
<path d="M2560 4465 c-259 -279 -396 -435 -418 -474 -62 -111 -64 -240 -6
-358 24 -50 232 -288 243 -278 2 3 -5 15 -16 28 -11 12 -31 42 -44 67 -32 61
-34 184 -3 250 14 29 128 160 324 373 l303 328 33 -33 c180 -185 577 -627 594
-664 33 -68 37 -156 10 -227 -12 -31 -33 -71 -47 -88 -14 -16 -24 -32 -21 -34
10 -10 220 232 243 280 56 113 52 251 -8 358 -20 35 -161 195 -382 433 -192
207 -366 394 -385 416 l-35 39 -385 -416z"/>
<path d="M2748 3713 c-102 -109 -193 -214 -203 -233 -26 -51 -23 -132 8 -178
33 -50 377 -414 387 -410 23 9 376 399 391 433 23 50 23 99 1 147 -14 32 -371
428 -392 436 -4 2 -91 -86 -192 -195z"/>
<path d="M1684 3042 c-72 -25 -147 -84 -191 -150 -32 -48 -64 -140 -207 -600
-92 -299 -164 -547 -160 -551 5 -4 252 -63 549 -132 595 -136 629 -141 737
-100 132 51 199 134 258 321 54 174 58 197 21 123 -36 -69 -84 -117 -148 -145
-90 -40 -107 -38 -569 67 -236 53 -432 100 -436 104 -11 10 250 831 280 880
56 92 192 154 294 133 26 -5 48 -6 48 -3 0 4 -64 21 -142 39 -163 37 -256 41
-334 14z"/>
<path d="M3845 3026 l-130 -32 80 0 c59 0 92 -5 126 -21 54 -24 111 -72 139
-119 19 -29 280 -842 280 -869 0 -5 -196 -54 -436 -109 -472 -107 -486 -108
-577 -66 -62 29 -115 83 -144 147 -14 30 -27 53 -29 51 -6 -7 77 -270 98 -312
30 -59 111 -139 171 -169 62 -32 155 -50 212 -41 56 8 1086 243 1106 252 14 6
-6 79 -151 547 -93 297 -177 555 -187 574 -34 65 -102 129 -171 163 -60 30
-76 33 -162 35 -78 1 -118 -4 -225 -31z"/>
<path d="M2230 2858 c-50 -14 -88 -44 -109 -86 -21 -42 -177 -540 -170 -545 2
-2 127 -32 278 -66 199 -45 285 -61 310 -56 49 9 107 48 128 87 25 49 174 541
165 549 -9 7 -534 129 -553 128 -8 0 -30 -5 -49 -11z"/>
<path d="M3303 2806 c-145 -34 -264 -64 -266 -67 -2 -2 33 -123 78 -269 75
-247 83 -268 120 -307 27 -27 55 -45 85 -53 42 -12 64 -8 320 50 151 35 278
64 281 66 6 3 -122 430 -156 521 -27 69 -108 125 -180 122 -11 0 -138 -29
-282 -63z"/>
</g>
</svg>
